<svg id="svg" version="1.1" width="400" height="87.85046728971962" viewBox="0 0 400 87.85046728971962" xmlns="http://www.w3.org/2000/svg" xmlns:xlink="http://www.w3.org/1999/xlink" ><g id="svgg"><path id="path0" d="M158.208 25.518 C 158.094 25.636,158.000 26.056,158.000 26.450 L 158.000 27.167 157.175 27.167 C 154.550 27.167,154.480 27.258,154.374 30.863 C 154.267 34.469,154.275 34.500,155.328 34.500 L 156.150 34.500 156.200 35.458 L 156.250 36.417 157.125 36.467 L 158.000 36.517 158.000 37.092 C 158.000 38.175,158.360 38.333,160.820 38.333 C 163.517 38.333,163.500 38.340,163.500 37.316 L 163.500 36.500 165.083 36.500 C 167.453 36.500,167.333 36.748,167.333 31.833 C 167.333 27.260,167.307 27.167,166.000 27.167 C 165.385 27.167,165.333 27.131,165.330 26.708 C 165.320 25.538,165.035 25.437,161.556 25.366 C 159.139 25.317,158.369 25.352,158.208 25.518 M119.890 27.358 C 119.509 27.444,119.134 27.642,119.057 27.798 C 118.904 28.108,118.764 85.844,118.915 86.458 L 119.006 86.833 124.420 86.833 L 129.833 86.833 129.833 57.193 L 129.833 27.554 129.409 27.360 C 128.891 27.124,120.940 27.122,119.890 27.358 M138.116 27.277 C 137.509 27.447,137.500 27.904,137.500 57.511 L 137.500 86.833 142.997 86.833 L 148.494 86.833 148.585 86.458 C 148.636 86.252,148.656 73.071,148.630 57.167 C 148.580 26.326,148.618 27.756,147.837 27.386 C 147.547 27.249,138.573 27.148,138.116 27.277 M80.917 29.147 C 80.085 29.318,79.795 29.583,79.683 30.269 L 79.578 30.917 76.228 30.962 C 72.502 31.012,72.420 31.037,72.182 32.202 L 72.070 32.750 70.660 32.873 C 68.783 33.037,68.534 33.160,68.469 33.950 C 68.418 34.572,68.403 34.584,67.670 34.636 C 66.694 34.706,66.500 34.892,66.500 35.762 L 66.500 36.483 65.625 36.533 L 64.750 36.583 64.700 37.534 L 64.651 38.484 63.700 38.534 L 62.750 38.583 62.700 39.458 L 62.649 40.333 61.914 40.333 C 60.954 40.333,60.833 40.573,60.833 42.489 L 60.833 44.000 60.018 44.000 C 59.015 44.000,59.000 44.032,59.000 46.172 L 59.000 47.816 58.125 47.866 L 57.250 47.917 57.207 58.958 L 57.164 70.000 58.059 70.000 L 58.955 70.000 59.035 72.493 C 59.124 75.261,59.193 75.454,60.138 75.532 C 60.706 75.580,60.753 75.625,60.795 76.167 C 60.894 77.452,60.931 77.500,61.828 77.500 L 62.650 77.500 62.700 78.458 L 62.750 79.417 63.708 79.467 L 64.667 79.517 64.667 80.425 L 64.667 81.333 65.575 81.333 L 66.483 81.333 66.533 82.208 L 66.583 83.083 67.438 83.133 L 68.293 83.183 68.399 83.988 C 68.524 84.927,68.694 85.000,70.749 85.000 L 71.956 85.000 72.046 85.673 C 72.200 86.820,72.235 86.833,75.104 86.833 L 77.667 86.833 77.667 87.333 L 77.667 87.833 84.167 87.833 L 90.667 87.833 90.667 87.333 L 90.667 86.833 93.958 86.828 C 97.638 86.822,97.743 86.793,97.963 85.734 L 98.098 85.083 99.674 84.956 C 101.423 84.816,101.833 84.567,101.833 83.648 C 101.833 83.217,101.889 83.166,102.375 83.164 C 103.514 83.160,103.667 83.040,103.667 82.147 L 103.667 81.333 104.467 81.333 C 105.452 81.333,105.667 81.134,105.667 80.217 C 105.667 79.509,105.674 79.500,106.250 79.500 C 107.051 79.500,107.500 79.021,107.500 78.167 C 107.500 77.543,107.531 77.500,107.982 77.500 C 108.903 77.500,109.158 77.086,109.275 75.402 L 109.379 73.887 110.231 73.735 L 111.083 73.583 111.129 70.875 L 111.175 68.167 111.998 68.167 C 113.233 68.167,113.181 68.597,113.129 58.844 C 113.079 49.286,113.152 49.847,111.931 49.709 L 111.167 49.623 111.161 47.270 C 111.155 44.615,111.084 44.415,110.067 44.204 L 109.417 44.069 109.290 42.493 C 109.149 40.744,108.900 40.333,107.982 40.333 C 107.541 40.333,107.500 40.283,107.500 39.739 C 107.500 38.768,107.264 38.500,106.411 38.500 L 105.667 38.500 105.667 37.833 C 105.667 36.944,105.222 36.500,104.333 36.500 L 103.667 36.500 103.667 35.777 C 103.667 34.843,103.310 34.667,101.418 34.667 L 100.017 34.667 99.967 33.792 L 99.917 32.917 98.134 32.869 L 96.350 32.822 96.300 31.953 L 96.250 31.083 92.542 31.038 L 88.833 30.994 88.833 30.319 C 88.833 28.961,88.943 28.997,84.952 29.022 C 83.008 29.034,81.192 29.090,80.917 29.147 M14.278 31.111 C 14.217 31.172,14.167 31.582,14.167 32.022 L 14.167 32.822 12.292 32.870 L 10.417 32.917 10.366 33.792 L 10.316 34.667 8.783 34.669 C 6.949 34.672,6.822 34.737,6.710 35.729 C 6.626 36.479,6.608 36.500,6.051 36.500 C 5.078 36.500,4.833 36.734,4.833 37.664 L 4.833 38.483 3.958 38.533 L 3.083 38.583 3.036 40.367 L 2.989 42.150 2.036 42.200 L 1.083 42.250 1.033 43.125 C 0.984 43.971,0.966 44.000,0.491 44.000 L 0.000 44.000 0.000 58.917 L 0.000 73.833 0.500 73.833 C 0.992 73.833,1.000 73.848,1.004 74.708 C 1.013 76.671,1.438 77.485,2.458 77.495 C 2.996 77.500,3.000 77.506,3.000 78.327 C 3.000 79.269,3.242 79.500,4.230 79.500 L 4.816 79.500 4.866 80.375 L 4.917 81.250 5.771 81.300 L 6.625 81.349 6.710 82.100 C 6.814 83.028,6.836 83.049,7.794 83.160 C 8.555 83.248,8.577 83.267,8.710 83.943 C 8.873 84.770,8.959 84.810,10.856 84.945 L 12.333 85.050 12.333 85.533 C 12.333 86.696,12.764 86.833,16.409 86.833 L 19.667 86.833 19.667 87.333 L 19.667 87.833 25.250 87.833 L 30.833 87.833 30.833 87.337 L 30.833 86.840 34.458 86.795 L 38.083 86.750 38.239 85.875 L 38.394 85.000 39.739 84.983 C 41.762 84.958,41.907 84.891,41.967 83.952 L 42.018 83.167 42.746 83.167 C 43.884 83.167,44.000 83.073,44.000 82.158 L 44.000 81.351 44.875 81.300 L 45.750 81.250 45.800 80.375 L 45.851 79.500 46.658 79.500 C 47.575 79.500,47.667 79.385,47.667 78.236 L 47.667 77.500 48.481 77.500 C 49.460 77.500,49.494 77.426,49.498 75.292 L 49.500 73.833 50.153 73.833 C 51.395 73.833,51.333 74.032,51.333 70.066 L 51.333 66.500 46.750 66.500 L 42.167 66.500 42.167 67.408 L 42.167 68.316 41.292 68.366 L 40.417 68.417 40.333 69.327 C 40.251 70.231,40.245 70.238,39.600 70.371 C 38.658 70.565,38.511 70.856,38.505 72.542 L 38.500 74.000 37.042 74.005 C 35.356 74.011,35.065 74.158,34.871 75.100 C 34.738 75.745,34.731 75.751,33.827 75.833 L 32.917 75.917 32.866 76.792 L 32.816 77.667 25.325 77.667 L 17.833 77.667 17.833 76.851 C 17.833 75.926,17.719 75.833,16.578 75.833 L 15.851 75.833 15.800 74.958 L 15.750 74.083 14.833 74.000 C 14.005 73.925,13.912 73.876,13.870 73.500 C 13.753 72.452,13.685 72.356,12.958 72.214 C 12.263 72.077,12.249 72.060,12.197 71.332 C 12.127 70.359,11.940 70.167,11.063 70.167 L 10.333 70.167 10.333 68.597 C 10.333 66.514,10.326 66.500,9.232 66.500 L 8.333 66.500 8.333 58.917 L 8.333 51.333 9.232 51.333 C 10.326 51.333,10.333 51.319,10.333 49.236 L 10.333 47.667 11.050 47.667 C 11.951 47.667,12.167 47.451,12.167 46.550 C 12.167 45.833,12.167 45.833,12.792 45.831 C 13.682 45.827,13.868 45.645,13.960 44.692 L 14.041 43.849 14.895 43.800 L 15.750 43.750 15.800 42.875 L 15.851 42.000 17.300 41.995 C 18.976 41.989,19.268 41.841,19.463 40.900 L 19.598 40.250 25.299 40.206 L 31.000 40.162 31.000 40.672 C 31.000 41.645,31.599 42.000,33.242 42.000 L 34.667 42.000 34.667 42.492 C 34.667 43.453,34.966 43.812,35.815 43.867 C 36.525 43.913,36.590 43.955,36.667 44.417 C 36.803 45.232,37.076 45.538,37.769 45.650 C 38.406 45.752,38.418 45.768,38.500 46.585 L 38.583 47.417 39.435 47.568 L 40.287 47.720 40.392 49.235 C 40.547 51.475,40.149 51.333,46.268 51.333 L 51.333 51.333 51.333 47.768 C 51.333 43.802,51.395 44.000,50.153 44.000 L 49.500 44.000 49.483 42.625 C 49.459 40.573,49.392 40.427,48.460 40.366 L 47.683 40.316 47.633 39.450 L 47.583 38.583 46.708 38.533 L 45.833 38.483 45.833 37.691 C 45.833 36.715,45.632 36.500,44.717 36.500 L 44.000 36.500 44.000 35.756 C 44.000 34.886,43.734 34.667,42.678 34.667 C 42.042 34.667,42.000 34.637,42.000 34.185 C 42.000 33.265,41.590 33.018,39.833 32.877 L 38.250 32.750 38.198 32.167 C 38.089 30.943,38.778 31.008,25.903 31.004 C 19.570 31.002,14.339 31.050,14.278 31.111 M174.833 58.917 L 174.833 86.833 190.258 86.833 L 205.682 86.833 206.091 86.424 C 206.346 86.169,206.500 85.824,206.500 85.508 L 206.500 85.000 208.217 85.000 C 210.174 85.000,210.333 84.918,210.333 83.908 L 210.333 83.217 211.875 83.108 C 213.590 82.988,213.833 82.836,213.833 81.885 C 213.833 81.351,213.855 81.333,214.511 81.333 C 215.567 81.333,215.833 81.114,215.833 80.244 L 215.833 79.500 216.500 79.500 C 217.389 79.500,217.833 79.056,217.833 78.167 C 217.833 77.552,217.869 77.500,218.292 77.495 C 219.221 77.484,219.654 76.612,219.663 74.730 L 219.667 73.876 220.480 73.768 C 221.479 73.636,221.500 73.567,221.500 70.396 L 221.500 68.167 222.314 68.167 C 223.395 68.167,223.328 68.761,223.331 59.146 C 223.334 49.366,223.388 49.874,222.325 49.733 L 221.523 49.627 221.470 47.071 C 221.411 44.246,221.389 44.187,220.354 44.048 L 219.667 43.956 219.663 43.103 C 219.654 41.222,219.221 40.349,218.292 40.339 C 217.878 40.334,217.833 40.275,217.833 39.739 C 217.833 38.742,217.605 38.500,216.661 38.500 L 215.833 38.500 215.833 37.673 C 215.833 36.712,215.595 36.500,214.511 36.500 C 213.858 36.500,213.833 36.480,213.831 35.958 C 213.826 35.016,213.148 34.680,211.230 34.671 L 210.377 34.667 210.285 33.980 C 210.146 32.943,210.089 32.922,207.242 32.863 L 204.667 32.810 204.667 32.169 C 204.667 30.885,206.148 31.000,189.649 31.000 L 174.833 31.000 174.833 58.917 M229.167 58.917 L 229.167 86.833 245.816 86.833 C 260.843 86.833,262.474 86.808,262.566 86.570 C 262.766 86.047,262.678 79.911,262.467 79.700 C 262.315 79.548,259.385 79.500,250.300 79.500 L 238.333 79.500 238.333 71.083 L 238.333 62.667 248.583 62.667 L 258.833 62.667 258.833 58.917 L 258.833 55.167 248.583 55.167 L 238.333 55.167 238.333 47.674 L 238.333 40.181 250.042 40.132 C 256.481 40.105,261.876 40.020,262.031 39.944 C 262.611 39.658,263.007 32.282,262.494 31.322 C 262.325 31.007,261.963 31.000,245.744 31.000 L 229.167 31.000 229.167 58.917 M266.605 31.375 C 266.473 31.867,266.469 86.226,266.601 86.570 C 266.691 86.803,267.332 86.833,272.101 86.833 L 277.500 86.833 277.500 76.583 L 277.500 66.333 280.417 66.333 L 283.333 66.333 283.333 67.821 C 283.333 69.484,283.654 70.000,284.689 70.000 C 285.148 70.000,285.167 70.031,285.167 70.800 C 285.167 71.785,285.366 72.000,286.283 72.000 L 287.000 72.000 287.004 72.875 C 287.013 74.815,287.346 75.493,288.292 75.497 C 288.821 75.500,288.833 75.517,288.833 76.236 C 288.833 77.405,288.916 77.500,289.934 77.500 L 290.833 77.500 290.839 78.958 C 290.845 80.644,290.992 80.935,291.933 81.129 C 292.579 81.262,292.584 81.269,292.667 82.173 L 292.750 83.083 293.606 83.133 L 294.462 83.183 294.528 84.800 C 294.564 85.689,294.652 86.510,294.723 86.625 C 294.823 86.786,296.264 86.833,301.004 86.833 C 308.085 86.833,307.500 86.991,307.500 85.083 C 307.500 83.589,307.342 83.333,306.419 83.333 L 305.683 83.333 305.633 82.375 L 305.583 81.417 304.625 81.367 L 303.667 81.317 303.667 79.594 C 303.667 77.682,303.662 77.674,302.375 77.669 L 301.833 77.667 301.833 76.750 L 301.833 75.833 300.932 75.833 L 300.030 75.833 299.974 74.097 C 299.908 72.111,299.931 72.156,298.933 72.043 L 298.183 71.958 298.133 71.104 L 298.083 70.250 297.208 70.200 L 296.333 70.149 296.333 68.647 C 296.333 66.701,296.224 66.500,295.161 66.500 L 294.333 66.500 294.333 65.592 L 294.333 64.683 293.375 64.623 C 292.848 64.590,293.620 64.549,295.092 64.532 C 298.095 64.496,298.167 64.469,298.167 63.383 L 298.167 62.667 299.678 62.667 C 301.630 62.667,301.833 62.557,301.833 61.503 L 301.833 60.684 302.708 60.634 L 303.583 60.583 303.634 59.708 C 303.683 58.847,303.692 58.833,304.217 58.828 C 305.349 58.817,305.656 58.031,305.663 55.125 C 305.667 53.380,305.676 53.333,306.042 53.331 C 307.441 53.323,307.500 53.120,307.500 48.359 C 307.500 43.947,307.514 44.000,306.383 44.000 L 305.667 44.000 305.667 41.514 C 305.667 38.421,305.696 38.500,304.566 38.500 L 303.667 38.500 303.661 37.042 C 303.654 34.989,303.308 34.694,300.884 34.674 L 300.017 34.667 299.967 33.792 L 299.917 32.917 298.125 32.869 L 296.333 32.822 296.333 32.175 C 296.333 30.884,297.809 31.000,281.418 31.000 L 266.706 31.000 266.605 31.375 M90.833 40.674 C 90.833 41.645,91.434 42.000,93.076 42.000 L 94.500 42.000 94.502 42.542 C 94.507 43.666,94.624 43.813,95.555 43.867 L 96.409 43.917 96.533 44.648 C 96.684 45.538,96.655 45.508,97.467 45.617 C 98.122 45.705,98.129 45.713,98.207 46.523 C 98.303 47.530,98.303 47.530,99.330 47.629 L 100.167 47.709 100.167 49.321 C 100.167 51.173,100.255 51.333,101.283 51.333 L 102.000 51.333 102.000 58.917 L 102.000 66.500 101.283 66.500 C 100.254 66.500,100.167 66.658,100.167 68.533 L 100.167 70.167 99.500 70.167 C 98.620 70.167,98.167 70.612,98.167 71.478 C 98.167 72.106,98.149 72.125,97.486 72.214 C 96.652 72.326,96.684 72.293,96.533 73.185 L 96.409 73.917 95.580 74.000 L 94.750 74.083 94.596 74.951 L 94.442 75.818 93.596 75.867 L 92.750 75.917 92.700 76.792 L 92.649 77.667 85.075 77.667 L 77.500 77.667 77.500 76.851 C 77.500 75.852,77.461 75.833,75.403 75.833 L 73.833 75.833 73.833 74.917 L 73.833 74.000 72.925 74.000 L 72.017 74.000 71.967 73.042 L 71.917 72.083 71.042 72.033 L 70.167 71.983 70.167 70.330 C 70.167 68.456,70.085 68.333,68.844 68.333 L 68.167 68.333 68.167 65.673 C 68.167 62.694,68.155 62.667,66.928 62.667 L 66.333 62.667 66.333 58.917 L 66.333 55.167 66.986 55.167 C 68.208 55.167,68.167 55.271,68.167 52.232 L 68.167 49.500 68.844 49.500 C 69.928 49.500,70.167 49.288,70.167 48.327 C 70.167 47.506,70.170 47.500,70.708 47.497 C 71.653 47.493,72.000 46.726,72.000 44.644 L 72.000 43.833 73.394 43.833 C 75.090 43.833,75.667 43.513,75.667 42.571 L 75.667 42.000 76.583 42.000 L 77.500 42.000 77.500 41.083 L 77.500 40.167 84.167 40.167 L 90.833 40.167 90.833 40.674 M201.033 41.042 L 201.083 41.917 202.958 41.964 L 204.833 42.011 204.833 42.922 L 204.833 43.833 205.729 43.833 L 206.624 43.833 206.706 44.684 C 206.798 45.645,206.984 45.827,207.875 45.831 C 208.500 45.833,208.500 45.833,208.500 46.550 C 208.500 47.451,208.716 47.667,209.617 47.667 L 210.333 47.667 210.333 48.975 C 210.333 50.982,210.509 51.333,211.516 51.333 L 212.333 51.333 212.333 58.917 L 212.333 66.500 211.516 66.500 C 210.509 66.500,210.333 66.851,210.333 68.858 L 210.333 70.167 209.617 70.167 C 208.716 70.167,208.500 70.383,208.500 71.283 C 208.500 72.000,208.500 72.000,207.875 72.003 C 206.984 72.006,206.798 72.188,206.706 73.149 L 206.624 74.000 205.729 74.000 L 204.833 74.000 204.833 74.917 L 204.833 75.833 203.117 75.833 C 201.151 75.833,201.000 75.913,201.000 76.950 L 201.000 77.667 192.583 77.667 L 184.167 77.667 184.167 58.917 L 184.167 40.167 192.575 40.167 L 200.983 40.167 201.033 41.042 M290.833 40.674 C 290.833 41.645,291.434 42.000,293.076 42.000 L 294.500 42.000 294.510 42.875 C 294.535 45.055,294.717 45.494,295.653 45.619 L 296.333 45.711 296.333 48.689 L 296.333 51.667 295.792 51.669 C 294.818 51.674,294.537 52.261,294.510 54.351 L 294.500 55.119 293.142 55.212 C 291.483 55.326,290.943 55.646,290.865 56.558 L 290.813 57.167 284.157 57.167 L 277.500 57.167 277.500 48.667 L 277.500 40.167 284.167 40.167 L 290.833 40.167 290.833 40.674 M156.375 42.276 C 156.210 42.343,156.167 46.965,156.167 64.597 L 156.167 86.833 160.834 86.833 L 165.501 86.833 165.459 64.542 L 165.417 42.250 161.000 42.220 C 158.571 42.204,156.490 42.229,156.375 42.276 " stroke="none" fill="#fcfcfc" fill-rule="evenodd"></path><path id="path1" d="M352.500 7.917 L 352.500 15.833 360.833 15.833 L 369.167 15.833 369.167 7.917 L 369.167 0.000 360.833 0.000 L 352.500 0.000 352.500 7.917 M384.167 7.917 L 384.167 15.833 392.083 15.833 L 400.000 15.833 400.000 7.917 L 400.000 0.000 392.083 0.000 L 384.167 0.000 384.167 7.917 M320.744 23.708 C 320.700 23.823,320.684 33.029,320.707 44.167 L 320.750 64.417 329.042 64.460 L 337.333 64.503 337.333 44.002 L 337.333 23.500 329.078 23.500 C 322.627 23.500,320.806 23.546,320.744 23.708 M352.500 31.833 L 352.500 40.170 360.792 40.127 L 369.083 40.083 369.083 31.833 L 369.083 23.583 360.792 23.540 L 352.500 23.497 352.500 31.833 M384.207 56.125 L 384.250 64.417 392.125 64.460 L 400.000 64.503 400.000 56.168 L 400.000 47.833 392.082 47.833 L 384.164 47.833 384.207 56.125 " stroke="none" fill="#dcbc0c" fill-rule="evenodd"></path><path id="path2" d="" stroke="none" fill="#ecdc100" fill-rule="evenodd"></path><path id="path3" d="" stroke="none" fill="#ecdc100" fill-rule="evenodd"></path><path id="path4" d="" stroke="none" fill="#ecdc100" fill-rule="evenodd"></path></g></svg>